<svg xmlns="http://www.w3.org/2000/svg" xmlns:xlink="http://www.w3.org/1999/xlink" width="500" zoomAndPan="magnify" viewBox="0 0 375 374.999991" height="500" preserveAspectRatio="xMidYMid meet" version="1.0"><defs><clipPath id="fb964b44bf"><path d="M 1 37.5 L 370 37.5 L 370 325 L 1 325 Z M 1 37.5 " clip-rule="nonzero"/></clipPath></defs><g clip-path="url(#fb964b44bf)"><path fill="#000000" d="M 178.277344 193.742188 L 132.550781 239.523438 C 131.148438 240.824219 130.605469 241.019531 129.585938 241.363281 C 125 242.914062 119.386719 239.003906 119.484375 233.957031 C 119.519531 232 120.382812 230.132812 121.726562 228.683594 L 174 176.34375 C 177.097656 173.277344 181.339844 171.492188 185.71875 171.40625 C 185.933594 171.40625 185.933594 171.40625 186.144531 171.40625 C 190.496094 171.492188 194.757812 173.269531 197.867188 176.34375 L 250.140625 228.683594 C 251.441406 230.089844 251.636719 230.632812 251.980469 231.652344 C 253.53125 236.25 249.660156 241.863281 244.578125 241.765625 C 242.625 241.730469 240.761719 240.867188 239.3125 239.523438 L 193.585938 193.742188 L 193.585938 317.496094 C 193.503906 319.5625 193.21875 320.125 192.664062 321.144531 C 190.460938 325.222656 184.1875 326.308594 180.746094 323.136719 C 179.195312 321.703125 178.363281 319.625 178.277344 317.496094 Z M 142.859375 283.566406 L 70.710938 283.566406 C 36.605469 283.457031 4.339844 255.484375 2.035156 219.070312 C 0.257812 191.039062 17.199219 162.691406 43.550781 151.328125 C 49.949219 148.570312 56.785156 146.816406 63.699219 146.097656 L 63.914062 146.074219 C 63.96875 145.625 64.023438 145.171875 64.082031 144.722656 C 69.871094 100.230469 102.214844 59.199219 146.222656 44.121094 C 158.851562 39.792969 172.222656 37.609375 185.550781 37.542969 C 185.804688 37.542969 186.058594 37.542969 186.3125 37.542969 C 223.769531 37.722656 260.742188 56.074219 283.527344 85.855469 C 296.796875 103.195312 305.285156 124.085938 307.921875 145.832031 C 307.921875 145.832031 306.746094 145.917969 309.460938 146.242188 C 336.574219 149.597656 360.777344 170.148438 367.800781 197.441406 C 374.75 224.453125 363.65625 255.09375 340.304688 271.316406 C 328.921875 279.226562 315.132812 283.523438 301.152344 283.566406 L 229.007812 283.566406 C 226.9375 283.238281 226.265625 283.382812 224.507812 282.105469 C 220.578125 279.246094 220.519531 272.601562 224.507812 269.703125 C 226.265625 268.421875 226.9375 268.566406 229.007812 268.238281 L 301.128906 268.238281 C 327.953125 268.152344 353.335938 245.6875 354.605469 217.074219 C 355.347656 200.332031 347.71875 183.429688 334.667969 172.902344 C 325.28125 165.328125 313.425781 161.109375 301.132812 161.070312 C 301.132812 161.070312 299.65625 161.035156 298.660156 160.726562 C 293.542969 159.144531 293.316406 152.003906 292.511719 146.03125 C 287.496094 108.800781 261.589844 75.085938 226.3125 60.730469 C 195.21875 48.078125 158.148438 51.101562 129.363281 68.972656 C 100.300781 87.019531 80.757812 119.246094 78.585938 153.886719 L 78.09375 156.140625 C 76.925781 158.203125 75.402344 160.046875 73.207031 160.726562 C 71.144531 161.367188 69.042969 161.054688 66.941406 161.199219 C 48.003906 162.523438 30.242188 174.796875 22.203125 192.027344 C 15.382812 206.640625 15.664062 224.363281 22.914062 238.742188 C 31.792969 256.355469 51.074219 268.175781 70.738281 268.238281 L 142.859375 268.238281 C 144.925781 268.566406 145.597656 268.421875 147.355469 269.703125 C 151.21875 272.511719 151.320312 279.222656 147.355469 282.105469 C 145.597656 283.382812 144.925781 283.238281 142.859375 283.566406 Z M 142.859375 283.566406 " fill-opacity="1" fill-rule="evenodd"/></g></svg>